<svg xmlns="http://www.w3.org/2000/svg" viewBox="0 0 44 44" height="44" width="44"><title>culture_#FF3333.svg</title><rect fill="none" x="0" y="0" width="44" height="44"></rect><path fill="#ff3333" transform="translate(2 2)" d="M 19.652344 1.667969 C 12.472656 1.667969 6.667969 7.40625 6.667969 14.5 C 6.667969 24.125 19.652344 38.332031 19.652344 38.332031 C 19.652344 38.332031 32.640625 24.125 32.640625 14.5 C 32.640625 7.40625 26.832031 1.667969 19.652344 1.667969 Z M 19.652344 1.667969 M 15.25 23.472656 C 14.015625 23.472656 12.960938 23.023438 12.082031 22.125 C 11.203125 21.226562 10.765625 20.179688 10.765625 18.984375 L 10.765625 13.886719 L 19.71875 13.886719 L 19.71875 18.984375 C 19.71875 20.179688 19.289062 21.226562 18.421875 22.125 C 17.554688 23.023438 16.5 23.472656 15.25 23.472656 Z M 13.609375 17.628906 C 13.789062 17.628906 13.933594 17.570312 14.046875 17.457031 C 14.164062 17.34375 14.21875 17.195312 14.21875 17.015625 C 14.21875 16.839844 14.164062 16.691406 14.046875 16.578125 C 13.933594 16.464844 13.789062 16.40625 13.609375 16.40625 C 13.429688 16.40625 13.285156 16.464844 13.171875 16.578125 C 13.054688 16.691406 13 16.839844 13 17.015625 C 13 17.195312 13.054688 17.34375 13.171875 17.457031 C 13.285156 17.570312 13.429688 17.628906 13.609375 17.628906 Z M 15.289062 20.589844 C 15.8125 20.589844 16.28125 20.472656 16.703125 20.234375 C 17.125 20 17.332031 19.671875 17.332031 19.25 L 13.246094 19.25 C 13.246094 19.671875 13.457031 20 13.875 20.234375 C 14.296875 20.472656 14.769531 20.589844 15.289062 20.589844 Z M 16.914062 17.628906 C 17.089844 17.628906 17.238281 17.570312 17.351562 17.457031 C 17.46875 17.34375 17.523438 17.195312 17.523438 17.015625 C 17.523438 16.839844 17.46875 16.691406 17.351562 16.578125 C 17.238281 16.464844 17.089844 16.40625 16.914062 16.40625 C 16.734375 16.40625 16.589844 16.464844 16.472656 16.578125 C 16.359375 16.691406 16.300781 16.839844 16.300781 17.015625 C 16.300781 17.195312 16.359375 17.34375 16.472656 17.457031 C 16.589844 17.570312 16.734375 17.628906 16.914062 17.628906 Z M 23.101562 17.761719 C 22.667969 17.761719 22.246094 17.707031 21.839844 17.601562 C 21.433594 17.492188 21.042969 17.335938 20.675781 17.132812 L 20.675781 12.949219 L 18.574219 12.949219 L 18.574219 8.175781 L 27.570312 8.175781 L 27.570312 13.464844 C 27.570312 14.648438 27.136719 15.660156 26.269531 16.5 C 25.40625 17.34375 24.347656 17.761719 23.101562 17.761719 Z M 21.476562 12.089844 C 21.65625 12.089844 21.800781 12.027344 21.917969 11.898438 C 22.03125 11.773438 22.089844 11.632812 22.089844 11.480469 C 22.089844 11.300781 22.03125 11.15625 21.917969 11.039062 C 21.800781 10.925781 21.65625 10.867188 21.476562 10.867188 C 21.300781 10.867188 21.152344 10.925781 21.039062 11.039062 C 20.921875 11.15625 20.867188 11.300781 20.867188 11.480469 C 20.867188 11.632812 20.921875 11.773438 21.039062 11.898438 C 21.152344 12.027344 21.300781 12.089844 21.476562 12.089844 Z M 21.058594 14.878906 L 25.144531 14.878906 C 25.144531 14.457031 24.929688 14.128906 24.503906 13.894531 C 24.078125 13.660156 23.609375 13.542969 23.101562 13.542969 C 22.71875 13.542969 22.28125 13.648438 21.792969 13.855469 C 21.300781 14.066406 21.058594 14.40625 21.058594 14.878906 Z M 24.761719 12.089844 C 24.941406 12.089844 25.085938 12.027344 25.203125 11.898438 C 25.316406 11.773438 25.375 11.632812 25.375 11.480469 C 25.375 11.300781 25.316406 11.15625 25.203125 11.039062 C 25.085938 10.925781 24.941406 10.867188 24.761719 10.867188 C 24.582031 10.867188 24.4375 10.925781 24.324219 11.039062 C 24.207031 11.15625 24.152344 11.300781 24.152344 11.480469 C 24.152344 11.632812 24.207031 11.773438 24.324219 11.898438 C 24.4375 12.027344 24.582031 12.089844 24.761719 12.089844 Z M 24.761719 12.089844 "></path></svg>