<svg xmlns="http://www.w3.org/2000/svg" viewBox="0 0 44 44" height="44" width="44"><title>finance_#3700D2.svg</title><rect fill="none" x="0" y="0" width="44" height="44"></rect><rect x="0" y="0" width="44" height="44" rx="22" ry="22" fill="#3700d2"></rect><path fill="#fff" transform="translate(2 2)" d="m24,28.66797c-3.34766,0 -6.23828,-1.89453 -7.67969,-4.66797l7.67969,0l0,-2.66797l-8.55859,0c-0.06641,-0.4375 -0.10938,-0.8789 -0.10938,-1.33203c0,-0.45312 0.04297,-0.89453 0.10938,-1.33203l8.55859,0l0,-2.66797l-7.67969,0c1.44141,-2.77344 4.34766,-4.66797 7.67969,-4.66797c2.14844,0 4.12109,0.78906 5.64063,2.09375l2.35937,-2.35937c-2.12109,-1.90625 -4.93359,-3.06641 -8,-3.06641c-5.22656,0 -9.65234,3.34766 -11.30859,8l-4.69141,0l0,2.66797l4.07813,0c-0.05079,0.4375 -0.07813,0.87891 -0.07813,1.33203c0,0.45313 0.02734,0.89453 0.07813,1.33203l-4.07813,0l0,2.66797l4.69141,0c1.65625,4.65234 6.08203,8 11.30859,8c3.07813,0 5.87891,-1.16016 8,-3.06641l-2.375,-2.35937c-1.50391,1.30469 -3.46484,2.09375 -5.625,2.09375zm0,0"></path></svg>