<svg xmlns="http://www.w3.org/2000/svg" viewBox="0 0 44 44" height="44" width="44"><title>gastronomy_#585858.svg</title><rect fill="none" x="0" y="0" width="44" height="44"></rect><path fill="#585858" transform="translate(2 2)" d="M 19.652344 1.667969 C 12.472656 1.667969 6.667969 7.40625 6.667969 14.5 C 6.667969 24.125 19.652344 38.332031 19.652344 38.332031 C 19.652344 38.332031 32.640625 24.125 32.640625 14.5 C 32.640625 7.40625 26.832031 1.667969 19.652344 1.667969 Z M 19.652344 1.667969 M 13.4375 22.5 L 12.5625 21.625 L 21.3125 12.875 C 21.007812 12.207031 20.9375 11.515625 21.105469 10.800781 C 21.269531 10.085938 21.667969 9.417969 22.292969 8.792969 C 22.917969 8.179688 23.671875 7.789062 24.5625 7.613281 C 25.453125 7.441406 26.179688 7.640625 26.75 8.207031 C 27.332031 8.792969 27.53125 9.519531 27.34375 10.394531 C 27.15625 11.269531 26.734375 12.042969 26.082031 12.707031 C 25.515625 13.292969 24.878906 13.671875 24.175781 13.855469 C 23.476562 14.035156 22.820312 13.992188 22.207031 13.730469 L 20.8125 15.125 L 27.3125 21.625 L 26.4375 22.5 L 19.9375 16 Z M 16.042969 15.1875 L 13.5625 12.707031 C 12.855469 12 12.484375 11.160156 12.457031 10.1875 C 12.429688 9.214844 12.75 8.355469 13.417969 7.605469 L 18.519531 12.707031 Z M 16.042969 15.1875 "></path></svg>