<svg xmlns="http://www.w3.org/2000/svg" viewBox="0 0 44 44" height="44" width="44"><title>health_#A258FF.svg</title><rect fill="none" x="0" y="0" width="44" height="44"></rect><path fill="#a258ff" transform="translate(2 2)" d="M 19.652344 1.667969 C 12.472656 1.667969 6.667969 7.40625 6.667969 14.5 C 6.667969 24.125 19.652344 38.332031 19.652344 38.332031 C 19.652344 38.332031 32.640625 24.125 32.640625 14.5 C 32.640625 7.40625 26.832031 1.667969 19.652344 1.667969 Z M 19.652344 1.667969 M 19.167969 17.519531 L 20.832031 17.519531 L 20.832031 15.4375 L 22.917969 15.4375 L 22.917969 13.769531 L 20.832031 13.769531 L 20.832031 11.6875 L 19.167969 11.6875 L 19.167969 13.769531 L 17.082031 13.769531 L 17.082031 15.4375 L 19.167969 15.4375 Z M 20 23.332031 C 18.054688 22.847656 16.457031 21.71875 15.207031 19.949219 C 13.957031 18.175781 13.332031 16.234375 13.332031 14.125 L 13.332031 9.167969 L 20 6.667969 L 26.667969 9.167969 L 26.667969 14.125 C 26.667969 16.234375 26.042969 18.175781 24.792969 19.949219 C 23.542969 21.71875 21.945312 22.847656 20 23.332031 Z M 20 23.332031 "></path></svg>