<svg xmlns="http://www.w3.org/2000/svg" viewBox="0 0 44 44" height="44" width="44"><title>health_#1DC6C6.svg</title><rect fill="none" x="0" y="0" width="44" height="44"></rect><rect x="0" y="0" width="44" height="44" rx="22" ry="22" fill="#1dc6c6"></rect><path fill="#fff" transform="translate(2 2)" d="M18.75 24.2812H21.25V21.1562H24.375V18.6562H21.25V15.5312H18.75V18.6562H15.625V21.1562H18.75V24.2812ZM20 33C17.0833 32.2708 14.6875 30.5781 12.8125 27.9219C10.9375 25.2656 10 22.3542 10 19.1875V11.75L20 8L30 11.75V19.1875C30 22.3542 29.0625 25.2656 27.1875 27.9219C25.3125 30.5781 22.9167 32.2708 20 33Z"></path></svg>