<svg xmlns="http://www.w3.org/2000/svg" viewBox="0 0 44 44" height="44" width="44"><title>leisure_#07DC03.svg</title><rect fill="none" x="0" y="0" width="44" height="44"></rect><path fill="#07dc03" transform="translate(2 2)" d="M 20 1.667969 C 12.628906 1.667969 6.667969 7.558594 6.667969 14.84375 C 6.667969 24.726562 20 39.3125 20 39.3125 C 20 39.3125 33.332031 24.726562 33.332031 14.84375 C 33.332031 7.558594 27.371094 1.667969 20 1.667969 Z M 20 1.667969 M 11.667969 14.375 C 11.695312 13.71875 11.855469 12.988281 12.148438 12.179688 C 12.4375 11.371094 12.800781 10.667969 13.234375 10.070312 C 14.109375 10.824219 14.730469 11.5625 15.09375 12.285156 C 15.453125 13.007812 15.683594 13.707031 15.78125 14.375 Z M 24.21875 14.375 C 24.316406 13.707031 24.546875 13.007812 24.90625 12.285156 C 25.269531 11.5625 25.890625 10.824219 26.765625 10.070312 C 27.199219 10.667969 27.558594 11.371094 27.851562 12.179688 C 28.144531 12.988281 28.304688 13.71875 28.332031 14.375 Z M 13.234375 19.90625 C 12.800781 19.308594 12.4375 18.609375 12.148438 17.808594 C 11.855469 17.007812 11.695312 16.28125 11.667969 15.625 L 15.78125 15.625 C 15.683594 16.292969 15.453125 16.988281 15.09375 17.703125 C 14.730469 18.421875 14.109375 19.15625 13.234375 19.90625 Z M 26.765625 19.90625 C 25.890625 19.15625 25.269531 18.421875 24.90625 17.703125 C 24.546875 16.988281 24.316406 16.292969 24.21875 15.625 L 28.332031 15.625 C 28.304688 16.28125 28.144531 17.007812 27.851562 17.808594 C 27.558594 18.609375 27.199219 19.308594 26.765625 19.90625 Z M 17.054688 14.375 C 16.945312 13.523438 16.6875 12.679688 16.28125 11.835938 C 15.878906 10.992188 15.140625 10.085938 14.070312 9.109375 C 14.667969 8.527344 15.40625 7.996094 16.28125 7.523438 C 17.160156 7.050781 18.191406 6.765625 19.375 6.667969 L 19.375 14.375 Z M 20.625 14.375 L 20.625 6.667969 C 21.808594 6.765625 22.84375 7.050781 23.726562 7.523438 C 24.613281 7.996094 25.355469 8.527344 25.953125 9.109375 C 24.878906 10.085938 24.140625 10.992188 23.726562 11.835938 C 23.316406 12.679688 23.054688 13.523438 22.945312 14.375 Z M 19.375 23.332031 C 18.121094 23.234375 17.074219 22.945312 16.230469 22.464844 C 15.386719 21.984375 14.667969 21.453125 14.070312 20.867188 C 15.140625 19.894531 15.878906 18.988281 16.28125 18.152344 C 16.6875 17.316406 16.945312 16.476562 17.054688 15.625 L 19.375 15.625 Z M 20.625 23.332031 L 20.625 15.625 L 22.945312 15.625 C 23.054688 16.476562 23.316406 17.316406 23.726562 18.152344 C 24.140625 18.988281 24.878906 19.894531 25.953125 20.867188 C 25.355469 21.453125 24.628906 21.984375 23.78125 22.464844 C 22.929688 22.945312 21.878906 23.234375 20.625 23.332031 Z M 20.625 23.332031 "></path></svg>