<svg xmlns="http://www.w3.org/2000/svg" viewBox="0 0 44 44" height="44" width="44"><title>marker_40_active.svg</title><rect fill="none" x="0" y="0" width="44" height="44"></rect><path fill="#f03c1d" transform="translate(2 2)" d="M 20 3.332031 C 13.5 3.332031 8.332031 8.5 8.332031 15 C 8.332031 23.667969 20 36.667969 20 36.667969 C 20 36.667969 31.667969 23.832031 31.667969 15 C 31.667969 8.5 26.5 3.332031 20 3.332031 Z M 20 19.167969 C 17.667969 19.167969 15.832031 17.332031 15.832031 15 C 15.832031 12.667969 17.667969 10.832031 20 10.832031 C 22.332031 10.832031 24.167969 12.667969 24.167969 15 C 24.167969 17.332031 22.332031 19.167969 20 19.167969 Z M 20 19.167969 "></path></svg>