<svg xmlns="http://www.w3.org/2000/svg" viewBox="0 0 59 59" height="59" width="59"><title>marker_55.svg</title><rect fill="none" x="0" y="0" width="59" height="59"></rect><path fill="#585858" transform="translate(2 2)" d="M 27.5 6.664062 C 19.375 6.664062 12.914062 13.125 12.914062 21.25 C 12.914062 32.085938 27.5 48.335938 27.5 48.335938 C 27.5 48.335938 42.085938 32.289062 42.085938 21.25 C 42.085938 13.125 35.625 6.664062 27.5 6.664062 Z M 27.5 26.460938 C 24.585938 26.460938 22.289062 24.164062 22.289062 21.25 C 22.289062 18.335938 24.585938 16.039062 27.5 16.039062 C 30.414062 16.039062 32.710938 18.335938 32.710938 21.25 C 32.710938 24.164062 30.414062 26.460938 27.5 26.460938 Z M 27.5 26.460938 "></path></svg>