<svg xmlns="http://www.w3.org/2000/svg" viewBox="0 0 94 94" height="94" width="94"><title>marker_90_active.svg</title><rect fill="none" x="0" y="0" width="94" height="94"></rect><path fill="#f03c1d" transform="translate(2 2)" d="M 45 13.214844 C 32.605469 13.214844 22.75 23.070312 22.75 35.464844 C 22.75 51.992188 45 76.785156 45 76.785156 C 45 76.785156 67.25 52.304688 67.25 35.464844 C 67.25 23.070312 57.394531 13.214844 45 13.214844 Z M 45 43.414062 C 40.554688 43.414062 37.050781 39.910156 37.050781 35.464844 C 37.050781 31.023438 40.554688 27.515625 45 27.515625 C 49.445312 27.515625 52.949219 31.023438 52.949219 35.464844 C 52.949219 39.910156 49.445312 43.414062 45 43.414062 Z M 45 43.414062 "></path></svg>