<svg xmlns="http://www.w3.org/2000/svg" viewBox="0 0 79 79" height="79" width="79"><title>marker_75_active.svg</title><rect fill="none" x="0" y="0" width="79" height="79"></rect><path fill="#f03c1d" transform="translate(2 2)" d="M 37.5 11.011719 C 27.171875 11.011719 18.957031 19.226562 18.957031 29.554688 C 18.957031 43.328125 37.5 63.988281 37.5 63.988281 C 37.5 63.988281 56.042969 43.585938 56.042969 29.554688 C 56.042969 19.226562 47.828125 11.011719 37.5 11.011719 Z M 37.5 36.179688 C 33.796875 36.179688 30.875 33.257812 30.875 29.554688 C 30.875 25.851562 33.796875 22.929688 37.5 22.929688 C 41.203125 22.929688 44.125 25.851562 44.125 29.554688 C 44.125 33.257812 41.203125 36.179688 37.5 36.179688 Z M 37.5 36.179688 "></path></svg>