<svg xmlns="http://www.w3.org/2000/svg" viewBox="0 0 44 44" height="44" width="44"><title>media_#585858.svg</title><rect fill="none" x="0" y="0" width="44" height="44"></rect><path fill="#585858" transform="translate(2 2)" d="M 19.652344 1.667969 C 12.472656 1.667969 6.667969 7.40625 6.667969 14.5 C 6.667969 24.125 19.652344 38.332031 19.652344 38.332031 C 19.652344 38.332031 32.640625 24.125 32.640625 14.5 C 32.640625 7.40625 26.832031 1.667969 19.652344 1.667969 Z M 19.652344 1.667969 M 13.054688 20.277344 C 12.75 20.277344 12.484375 20.164062 12.253906 19.933594 C 12.023438 19.703125 11.910156 19.4375 11.910156 19.132812 L 11.910156 9.203125 C 11.910156 8.894531 12.023438 8.628906 12.253906 8.398438 C 12.484375 8.171875 12.75 8.054688 13.054688 8.054688 L 17.734375 8.054688 L 18.878906 9.203125 L 25.277344 9.203125 C 25.582031 9.203125 25.851562 9.316406 26.078125 9.546875 C 26.308594 9.773438 26.421875 10.042969 26.421875 10.347656 L 26.421875 19.132812 C 26.421875 19.4375 26.308594 19.703125 26.078125 19.933594 C 25.851562 20.164062 25.582031 20.277344 25.277344 20.277344 Z M 15.234375 17.011719 L 23.101562 17.011719 L 20.578125 13.652344 L 18.480469 16.4375 L 16.96875 14.796875 Z M 15.234375 17.011719 "></path></svg>