<svg xmlns="http://www.w3.org/2000/svg" viewBox="0 0 44 44" height="44" width="44"><title>meeting_point_#07DC03.svg</title><rect fill="none" x="0" y="0" width="44" height="44"></rect><path fill="#07dc03" transform="translate(2 2)" d="M 19.652344 1.667969 C 12.472656 1.667969 6.667969 7.40625 6.667969 14.5 C 6.667969 24.125 19.652344 38.332031 19.652344 38.332031 C 19.652344 38.332031 32.640625 24.125 32.640625 14.5 C 32.640625 7.40625 26.832031 1.667969 19.652344 1.667969 Z M 19.652344 1.667969 M 11.667969 18.789062 L 11.667969 15.757812 C 11.667969 15.390625 11.796875 15.078125 12.054688 14.820312 C 12.3125 14.5625 12.625 14.433594 12.992188 14.433594 L 15.664062 14.433594 C 15.878906 14.433594 16.082031 14.484375 16.277344 14.59375 C 16.472656 14.699219 16.640625 14.847656 16.78125 15.039062 C 17.148438 15.566406 17.613281 15.980469 18.183594 16.269531 C 18.75 16.558594 19.355469 16.703125 20 16.703125 C 20.644531 16.703125 21.25 16.558594 21.816406 16.269531 C 22.386719 15.980469 22.859375 15.566406 23.238281 15.039062 C 23.378906 14.847656 23.542969 14.699219 23.730469 14.59375 C 23.921875 14.484375 24.121094 14.433594 24.335938 14.433594 L 27.007812 14.433594 C 27.375 14.433594 27.6875 14.5625 27.945312 14.820312 C 28.203125 15.078125 28.332031 15.390625 28.332031 15.757812 L 28.332031 18.789062 L 23.410156 18.789062 L 23.410156 16.535156 C 22.953125 16.949219 22.433594 17.273438 21.847656 17.5 C 21.257812 17.726562 20.644531 17.839844 20 17.839844 C 19.355469 17.839844 18.742188 17.726562 18.164062 17.5 C 17.582031 17.273438 17.058594 16.949219 16.589844 16.535156 L 16.589844 18.789062 Z M 20 15.566406 C 19.558594 15.566406 19.132812 15.464844 18.722656 15.253906 C 18.3125 15.046875 17.980469 14.761719 17.726562 14.394531 C 17.523438 14.105469 17.28125 13.871094 17 13.691406 C 16.714844 13.515625 16.40625 13.394531 16.078125 13.332031 C 16.445312 12.953125 17.019531 12.664062 17.804688 12.460938 C 18.585938 12.261719 19.316406 12.160156 20 12.160156 C 20.683594 12.160156 21.417969 12.261719 22.207031 12.460938 C 22.996094 12.664062 23.574219 12.953125 23.9375 13.332031 C 23.609375 13.394531 23.304688 13.515625 23.019531 13.691406 C 22.738281 13.871094 22.492188 14.105469 22.292969 14.394531 C 22.039062 14.761719 21.707031 15.046875 21.296875 15.253906 C 20.886719 15.464844 20.453125 15.566406 20 15.566406 Z M 13.9375 13.105469 C 13.371094 13.105469 12.882812 12.902344 12.472656 12.492188 C 12.0625 12.082031 11.855469 11.589844 11.855469 11.023438 C 11.855469 10.441406 12.0625 9.949219 12.472656 9.546875 C 12.882812 9.140625 13.371094 8.9375 13.9375 8.9375 C 14.519531 8.9375 15.011719 9.140625 15.417969 9.546875 C 15.820312 9.949219 16.023438 10.441406 16.023438 11.023438 C 16.023438 11.589844 15.820312 12.082031 15.417969 12.492188 C 15.011719 12.902344 14.519531 13.105469 13.9375 13.105469 Z M 26.0625 13.105469 C 25.492188 13.105469 25.003906 12.902344 24.59375 12.492188 C 24.183594 12.082031 23.976562 11.589844 23.976562 11.023438 C 23.976562 10.441406 24.183594 9.949219 24.59375 9.546875 C 25.003906 9.140625 25.492188 8.9375 26.0625 8.9375 C 26.640625 8.9375 27.132812 9.140625 27.539062 9.546875 C 27.941406 9.949219 28.144531 10.441406 28.144531 11.023438 C 28.144531 11.589844 27.941406 12.082031 27.539062 12.492188 C 27.132812 12.902344 26.640625 13.105469 26.0625 13.105469 Z M 20 10.832031 C 19.433594 10.832031 18.941406 10.628906 18.53125 10.21875 C 18.121094 9.808594 17.917969 9.316406 17.917969 8.75 C 17.917969 8.167969 18.121094 7.675781 18.53125 7.273438 C 18.941406 6.867188 19.433594 6.667969 20 6.667969 C 20.582031 6.667969 21.074219 6.867188 21.476562 7.273438 C 21.882812 7.675781 22.082031 8.167969 22.082031 8.75 C 22.082031 9.316406 21.882812 9.808594 21.476562 10.21875 C 21.074219 10.628906 20.582031 10.832031 20 10.832031 Z M 20 10.832031 "></path></svg>