<svg xmlns="http://www.w3.org/2000/svg" viewBox="0 0 44 44" height="44" width="44"><title>mobility_#3700D2.svg</title><rect fill="none" x="0" y="0" width="44" height="44"></rect><path fill="#3700d2" transform="translate(2 2)" d="M 20 1.667969 C 12.628906 1.667969 6.667969 7.558594 6.667969 14.84375 C 6.667969 24.726562 20 39.3125 20 39.3125 C 20 39.3125 33.332031 24.726562 33.332031 14.84375 C 33.332031 7.558594 27.371094 1.667969 20 1.667969 Z M 20 1.667969 M 15.1875 22.5 C 15.007812 22.5 14.847656 22.449219 14.707031 22.34375 C 14.570312 22.238281 14.5 22.105469 14.5 21.9375 L 14.5 20.1875 C 14.097656 19.964844 13.800781 19.644531 13.613281 19.230469 C 13.425781 18.8125 13.332031 18.367188 13.332031 17.894531 L 13.332031 9.625 C 13.332031 8.597656 13.863281 7.847656 14.925781 7.375 C 15.988281 6.902344 17.6875 6.667969 20.019531 6.667969 C 22.328125 6.667969 24.011719 6.902344 25.074219 7.375 C 26.136719 7.847656 26.667969 8.597656 26.667969 9.625 L 26.667969 17.894531 C 26.667969 18.367188 26.574219 18.8125 26.386719 19.230469 C 26.199219 19.644531 25.902344 19.964844 25.5 20.1875 L 25.5 21.9375 C 25.5 22.105469 25.429688 22.238281 25.292969 22.34375 C 25.152344 22.449219 24.992188 22.5 24.8125 22.5 L 24.417969 22.5 C 24.222656 22.5 24.054688 22.449219 23.917969 22.34375 C 23.777344 22.238281 23.707031 22.105469 23.707031 21.9375 L 23.707031 20.792969 L 16.292969 20.792969 L 16.292969 21.9375 C 16.292969 22.105469 16.222656 22.238281 16.082031 22.34375 C 15.945312 22.449219 15.777344 22.5 15.582031 22.5 Z M 14.582031 13.9375 L 25.417969 13.9375 L 25.417969 10.332031 L 14.582031 10.332031 Z M 16.792969 18.5 C 17.109375 18.5 17.382812 18.390625 17.605469 18.167969 C 17.828125 17.945312 17.9375 17.671875 17.9375 17.355469 C 17.9375 17.035156 17.828125 16.765625 17.605469 16.542969 C 17.382812 16.320312 17.109375 16.207031 16.792969 16.207031 C 16.472656 16.207031 16.203125 16.320312 15.980469 16.542969 C 15.757812 16.765625 15.644531 17.035156 15.644531 17.355469 C 15.644531 17.671875 15.757812 17.945312 15.980469 18.167969 C 16.203125 18.390625 16.472656 18.5 16.792969 18.5 Z M 23.207031 18.5 C 23.527344 18.5 23.796875 18.390625 24.019531 18.167969 C 24.242188 17.945312 24.355469 17.671875 24.355469 17.355469 C 24.355469 17.035156 24.242188 16.765625 24.019531 16.542969 C 23.796875 16.320312 23.527344 16.207031 23.207031 16.207031 C 22.890625 16.207031 22.617188 16.320312 22.394531 16.542969 C 22.171875 16.765625 22.0625 17.035156 22.0625 17.355469 C 22.0625 17.671875 22.171875 17.945312 22.394531 18.167969 C 22.617188 18.390625 22.890625 18.5 23.207031 18.5 Z M 23.207031 18.5 "></path></svg>