<svg xmlns="http://www.w3.org/2000/svg" viewBox="0 0 44 44" height="44" width="44"><title>multipois.svg</title><rect fill="none" x="0" y="0" width="44" height="44"></rect><path fill="#585858" transform="translate(2 2)" d="M30.9412 14.5657C29.2462 11.5575 25.7004 9.96512 22.2428 10.6218C17.6792 11.4897 14.7695 15.9077 15.7811 20.4097C16.0643 21.6778 16.5609 22.8639 17.1108 24.0315C18.223 26.3913 19.6614 28.5499 21.2619 30.6019C22.0889 31.6648 22.9405 32.7052 23.792 33.7681C23.8515 33.7148 23.8721 33.7025 23.8864 33.684C25.3495 31.8536 26.8331 30.0417 28.1463 28.0964C29.5684 25.987 30.8139 23.7914 31.5588 21.3434C32.2708 19.0021 32.1539 16.7223 30.9412 14.5657ZM23.7879 21.8502C22.0581 21.842 20.6422 20.4241 20.6402 18.6984C20.6402 16.9685 22.0437 15.5732 23.792 15.5711C25.5752 15.5691 26.9541 16.9378 26.9521 18.7045C26.95 20.4446 25.5239 21.8605 23.7879 21.8502Z"></path><path fill="#585858" transform="translate(2 2)" d="M13.3906 13.9644C12.8201 15.1915 13.1402 16.6895 14.1744 17.578C14.3304 17.7093 14.3858 17.8365 14.3755 18.0376C14.2668 19.9583 14.7757 21.7497 15.5246 23.4918C16.1874 25.0308 16.9795 26.4959 17.87 27.9118C17.9213 27.9918 17.9706 28.0718 18.0281 28.1642C17.4494 28.8865 16.8728 29.6088 16.2736 30.3577C16.0274 30.0643 15.7934 29.7914 15.5636 29.5123C13.7702 27.3454 12.0465 25.1272 10.6389 22.6813C9.67238 21.0048 8.82285 19.2729 8.30986 17.3974C6.97607 12.5075 10.1259 8.28249 14.1108 7.28728C17.0431 6.55472 19.6573 7.23188 21.9309 9.2223C21.9822 9.26745 22.0274 9.32285 22.0951 9.39262C21.8242 9.45828 21.58 9.51163 21.3358 9.5773C19.6922 10.0144 18.2722 10.8393 17.0739 12.0458C16.9569 12.1648 16.8523 12.2038 16.682 12.1772C15.342 11.9617 13.9713 12.7127 13.3906 13.9644Z"></path></svg>