<svg xmlns="http://www.w3.org/2000/svg" viewBox="0 0 44 44" height="44" width="44"><title>office_#3700D2.svg</title><rect fill="none" x="0" y="0" width="44" height="44"></rect><path fill="#3700d2" transform="translate(2 2)" d="M 19.652344 1.667969 C 12.472656 1.667969 6.667969 7.40625 6.667969 14.5 C 6.667969 24.125 19.652344 38.332031 19.652344 38.332031 C 19.652344 38.332031 32.640625 24.125 32.640625 14.5 C 32.640625 7.40625 26.832031 1.667969 19.652344 1.667969 Z M 19.652344 1.667969 M 13.054688 21.042969 L 13.054688 19.894531 L 22.222656 19.894531 L 22.222656 21.042969 Z M 17.296875 16.992188 L 13.054688 12.753906 L 14.390625 11.378906 L 18.671875 15.617188 Z M 22.144531 12.140625 L 17.90625 7.863281 L 19.28125 6.527344 L 23.519531 10.765625 Z M 26.003906 20.277344 L 15.765625 10.042969 L 16.570312 9.238281 L 26.804688 19.476562 Z M 26.003906 20.277344 "></path></svg>