<svg xmlns="http://www.w3.org/2000/svg" viewBox="0 0 44 44" height="44" width="44"><title>office_#585858.svg</title><rect fill="none" x="0" y="0" width="44" height="44"></rect><rect x="0" y="0" width="44" height="44" rx="22" ry="22" fill="#585858"></rect><path fill="#fff" transform="translate(2 2)" d="m11.7768,26.5662l0,-9.5023l1.901,0l0,9.5023l-1.901,0zm6.968,0l0,-9.5023l1.901,0l0,9.5023l-1.901,0zm-10.7448,4.4338l0,-1.901l23.392,0l0,1.901l-23.392,0zm17.7142,-4.4352l0,-9.5022l1.901,0l0,9.5022l-1.901,0zm-17.7142,-12.0364l0,-1.8029l11.696,-5.7255l11.696,5.7255l0,1.8029l-23.392,0z"></path></svg>