<svg xmlns="http://www.w3.org/2000/svg" viewBox="0 0 44 44" height="44" width="44"><title>other_#3700D2.svg</title><rect fill="none" x="0" y="0" width="44" height="44"></rect><path fill="#3700d2" transform="translate(2 2)" d="M 19.652344 1.667969 C 12.472656 1.667969 6.667969 7.40625 6.667969 14.5 C 6.667969 24.125 19.652344 38.332031 19.652344 38.332031 C 19.652344 38.332031 32.640625 24.125 32.640625 14.5 C 32.640625 7.40625 26.832031 1.667969 19.652344 1.667969 Z M 19.652344 1.667969 M 20 12.222656 C 19.234375 12.222656 18.582031 11.949219 18.035156 11.40625 C 17.492188 10.863281 17.222656 10.210938 17.222656 9.445312 C 17.222656 8.667969 17.492188 8.007812 18.035156 7.472656 C 18.582031 6.933594 19.234375 6.667969 20 6.667969 C 20.777344 6.667969 21.433594 6.933594 21.972656 7.472656 C 22.507812 8.007812 22.777344 8.667969 22.777344 9.445312 C 22.777344 10.210938 22.507812 10.863281 21.972656 11.40625 C 21.433594 11.949219 20.777344 12.222656 20 12.222656 Z M 16.109375 20 C 15.34375 20 14.691406 19.726562 14.148438 19.183594 C 13.605469 18.640625 13.332031 17.988281 13.332031 17.222656 C 13.332031 16.445312 13.605469 15.785156 14.148438 15.25 C 14.691406 14.714844 15.34375 14.445312 16.109375 14.445312 C 16.890625 14.445312 17.546875 14.714844 18.082031 15.25 C 18.621094 15.785156 18.890625 16.445312 18.890625 17.222656 C 18.890625 17.988281 18.621094 18.640625 18.082031 19.183594 C 17.546875 19.726562 16.890625 20 16.109375 20 Z M 23.890625 20 C 23.125 20 22.46875 19.726562 21.925781 19.183594 C 21.382812 18.640625 21.109375 17.988281 21.109375 17.222656 C 21.109375 16.445312 21.382812 15.785156 21.925781 15.25 C 22.46875 14.714844 23.125 14.445312 23.890625 14.445312 C 24.667969 14.445312 25.324219 14.714844 25.859375 15.25 C 26.398438 15.785156 26.667969 16.445312 26.667969 17.222656 C 26.667969 17.988281 26.398438 18.640625 25.859375 19.183594 C 25.324219 19.726562 24.667969 20 23.890625 20 Z M 23.890625 20 "></path></svg>