<svg xmlns="http://www.w3.org/2000/svg" viewBox="0 0 44 44" height="44" width="44"><title>service_#3700D2.svg</title><rect fill="none" x="0" y="0" width="44" height="44"></rect><path fill="#3700d2" transform="translate(2 2)" d="M 19.652344 1.667969 C 12.472656 1.667969 6.667969 7.40625 6.667969 14.5 C 6.667969 24.125 19.652344 38.332031 19.652344 38.332031 C 19.652344 38.332031 32.640625 24.125 32.640625 14.5 C 32.640625 7.40625 26.832031 1.667969 19.652344 1.667969 Z M 19.652344 1.667969 M 11.667969 19.167969 L 11.667969 17.917969 L 28.332031 17.917969 L 28.332031 19.167969 Z M 12.292969 16.667969 L 12.292969 16.3125 C 12.292969 14.160156 12.90625 12.421875 14.136719 11.105469 C 15.363281 9.785156 16.902344 8.929688 18.75 8.542969 L 18.75 7.917969 C 18.75 7.554688 18.867188 7.257812 19.105469 7.019531 C 19.339844 6.785156 19.640625 6.667969 20 6.667969 C 20.359375 6.667969 20.660156 6.785156 20.894531 7.019531 C 21.132812 7.257812 21.25 7.554688 21.25 7.917969 L 21.25 8.542969 C 23.097656 8.929688 24.636719 9.785156 25.863281 11.105469 C 27.09375 12.421875 27.707031 14.160156 27.707031 16.3125 L 27.707031 16.667969 Z M 12.292969 16.667969 "></path></svg>