<svg xmlns="http://www.w3.org/2000/svg" viewBox="0 0 44 44" height="44" width="44"><title>shopping_#C38E03.svg</title><rect fill="none" x="0" y="0" width="44" height="44"></rect><path fill="#c38e03" transform="translate(2 2)" d="M 20 1.667969 C 12.628906 1.667969 6.667969 7.558594 6.667969 14.84375 C 6.667969 24.726562 20 39.3125 20 39.3125 C 20 39.3125 33.332031 24.726562 33.332031 14.84375 C 33.332031 7.558594 27.371094 1.667969 20 1.667969 Z M 20 1.667969 M 14.582031 23.332031 C 14.25 23.332031 13.957031 23.207031 13.707031 22.957031 C 13.457031 22.707031 13.332031 22.417969 13.332031 22.082031 L 13.332031 11.25 C 13.332031 10.917969 13.457031 10.625 13.707031 10.375 C 13.957031 10.125 14.25 10 14.582031 10 L 16.875 10 L 16.875 9.792969 C 16.875 8.917969 17.175781 8.175781 17.78125 7.574219 C 18.386719 6.96875 19.125 6.667969 20 6.667969 C 20.875 6.667969 21.613281 6.96875 22.21875 7.574219 C 22.824219 8.175781 23.125 8.917969 23.125 9.792969 L 23.125 10 L 25.417969 10 C 25.75 10 26.042969 10.125 26.292969 10.375 C 26.542969 10.625 26.667969 10.917969 26.667969 11.25 L 26.667969 22.082031 C 26.667969 22.417969 26.542969 22.707031 26.292969 22.957031 C 26.042969 23.207031 25.75 23.332031 25.417969 23.332031 Z M 17.5 13.75 C 17.679688 13.75 17.828125 13.691406 17.949219 13.574219 C 18.066406 13.453125 18.125 13.304688 18.125 13.125 L 18.125 11.25 L 16.875 11.25 L 16.875 13.125 C 16.875 13.304688 16.933594 13.453125 17.050781 13.574219 C 17.171875 13.691406 17.320312 13.75 17.5 13.75 Z M 18.125 10 L 21.875 10 L 21.875 9.792969 C 21.875 9.265625 21.695312 8.820312 21.332031 8.457031 C 20.972656 8.097656 20.527344 7.917969 20 7.917969 C 19.472656 7.917969 19.027344 8.097656 18.667969 8.457031 C 18.304688 8.820312 18.125 9.265625 18.125 9.792969 Z M 22.5 13.75 C 22.679688 13.75 22.828125 13.691406 22.949219 13.574219 C 23.066406 13.453125 23.125 13.304688 23.125 13.125 L 23.125 11.25 L 21.875 11.25 L 21.875 13.125 C 21.875 13.304688 21.933594 13.453125 22.050781 13.574219 C 22.171875 13.691406 22.320312 13.75 22.5 13.75 Z M 22.5 13.75 "></path></svg>