<svg xmlns="http://www.w3.org/2000/svg" viewBox="0 0 44 44" height="44" width="44"><title>structure_#1DC6C6.svg</title><rect fill="none" x="0" y="0" width="44" height="44"></rect><rect x="0" y="0" width="44" height="44" rx="22" ry="22" fill="#1dc6c6"></rect><path fill="#fff" transform="translate(2 2)" d="m29.60156,9.19922l-1.20312,0l0,-2.39844l-2.39844,0l0,2.39844l-12,0l0,-2.39844l-2.39844,0l0,2.39844l-1.20312,0c-1.32031,0 -2.39844,1.08203 -2.39844,2.40234l0,19.19922c0,1.32031 1.07813,2.39844 2.39844,2.39844l19.20312,0c1.32032,0 2.39844,-1.07813 2.39844,-2.39844l0,-19.19922c0,-1.32031 -1.07812,-2.40234 -2.39844,-2.40234zm0,21.60156l-19.20312,0l0,-13.19922l19.20312,0l0,13.19922zm0,-15.60156l-19.20312,0l0,-3.59766l19.20312,0l0,3.59766zm0,0"></path></svg>